<svg width="126" height="65" viewBox="0 0 126 65" fill="none" xmlns="http://www.w3.org/2000/svg">
<g clip-path="url(#clip0_4_2)">
<path fill-rule="evenodd" clip-rule="evenodd" d="M33.4513 19.42C33.4513 18.9242 33.1476 18.5363 32.5403 18.2571C31.9329 17.9778 31.1741 17.7688 30.2623 17.6292C29.3521 17.4896 28.3567 17.4194 27.2795 17.4194C26.2015 17.4194 25.1767 17.4361 24.2051 17.4662C23.2638 18.9242 22.1849 20.8003 20.971 23.0953C19.7571 25.3911 18.5571 27.8875 17.3727 30.5855C19.559 30.2134 21.6242 29.6014 23.5674 28.7478C25.5106 27.8959 27.2189 26.9336 28.6923 25.8635C30.1641 24.7942 31.3256 23.6931 32.176 22.5611C33.0257 21.4282 33.4513 20.3815 33.4513 19.42ZM18.0562 36.9595C18.7847 38.1074 19.6654 39.2695 20.6984 40.4475C21.7306 41.6272 22.9298 42.6881 24.2959 43.6354C25.6621 44.5809 27.2034 45.356 28.9191 45.9613C30.6347 46.5657 32.555 46.8684 34.6808 46.8684C34.4991 47.829 34.0963 48.7361 33.4742 49.5897C32.8513 50.4417 32.0623 51.0854 31.1062 51.521C30.1493 51.9541 29.0402 52.0937 27.7805 51.939C26.5199 51.7835 25.1841 51.1866 23.7729 50.1482C22.3601 49.109 20.8802 47.5431 19.3315 45.4496C17.7828 43.3561 16.2349 40.5871 14.6854 37.1451C14.1387 38.5723 13.6533 39.9835 13.2284 41.3789C12.802 42.7742 12.4541 44.1069 12.1807 45.3794C11.9073 46.6502 11.7174 47.8449 11.611 48.9618C11.5046 50.078 11.512 51.0704 11.6347 51.939C11.0568 51.939 10.4339 51.8529 9.766 51.6832C9.09807 51.5126 8.47516 51.2175 7.89891 50.7995C7.32184 50.3806 6.84381 49.8221 6.46401 49.124C6.0842 48.4268 5.89512 47.5656 5.89512 46.5423C5.89512 45.1461 6.20617 43.4723 6.82908 41.5185C7.45035 39.5646 8.24761 37.4862 9.22004 35.2849C8.36957 34.6955 7.70164 33.943 7.21543 33.0276C6.72922 32.1138 6.48775 31.0361 6.48775 29.7946C8.06507 30.3221 9.72098 30.6632 11.4522 30.8187C12.1193 29.5153 12.8642 28.2286 13.6844 26.957C14.5037 25.6854 15.3239 24.4606 16.1433 23.2817C16.9626 22.1037 17.7672 21.0177 18.5571 20.0253C19.347 19.0329 20.0444 18.1643 20.6526 17.4194C18.9517 17.513 17.1149 17.8081 15.1414 18.3039C13.167 18.8005 11.2697 19.5061 9.44759 20.4199C7.62552 21.3354 5.99335 22.4524 4.55108 23.77C3.10962 25.0884 2.09954 26.6009 1.52247 28.3064C0.338044 26.2589 -0.155537 24.4606 0.0425501 22.9097C0.240637 21.3588 0.884829 20.0178 1.9784 18.885C3.07115 17.7538 4.49869 16.8082 6.25937 16.0474C8.02005 15.2883 9.86505 14.683 11.7935 14.2332C13.7212 13.7842 15.6194 13.4657 17.4865 13.2792C19.3544 13.0936 20.9555 13 22.2921 13C24.0225 13 25.6555 13.0936 27.1887 13.2792C28.7218 13.4657 30.065 13.8143 31.2192 14.326C32.3733 14.8385 33.2925 15.5516 33.9752 16.4663C34.6587 17.3817 35 18.5831 35 20.0713C35 22.3044 34.4917 24.3979 33.4742 26.3517C32.456 28.3064 31.1357 30.0278 29.5117 31.516C27.8869 33.005 26.0648 34.2223 24.0463 35.1679C22.0261 36.1143 20.0305 36.7112 18.0562 36.9595Z" fill="#FEFEFE"/>
<path fill-rule="evenodd" clip-rule="evenodd" d="M50.5055 36.3759C49.9315 36.9502 49.3652 37.5164 48.8074 38.0761C48.2497 38.635 47.7392 39.1262 47.2778 39.5499C46.8154 39.9727 46.4244 40.3197 46.1064 40.5918C45.7876 40.8639 45.5805 41 45.4843 41C45.0383 41 44.6077 40.9169 44.1935 40.7507C43.7793 40.5845 43.3969 40.3727 43.0454 40.1161C42.6948 39.8594 42.4163 39.5719 42.2092 39.2541C42.0013 38.9372 41.8981 38.6276 41.8981 38.3254C41.8981 37.8716 42.0339 37.3958 42.3046 36.8973C42.5745 36.3987 42.8615 35.9384 43.1657 35.5139C43.4682 35.0919 43.7312 34.7367 43.9546 34.4491C44.1772 34.1624 44.2416 34.0182 44.1462 34.0182C44.05 34.0182 43.7157 34.2609 43.1416 34.744C42.5676 35.228 41.8904 35.8243 41.1084 36.5339C40.3272 37.2443 39.5229 38.0003 38.6944 38.8012C37.8652 39.602 37.1476 40.3352 36.5426 41C36.3192 41 35.9514 40.9707 35.4426 40.9088C34.9321 40.8485 34.4217 40.7051 33.9121 40.4786C33.4033 40.2521 32.9556 39.9344 32.5732 39.5262C32.1908 39.1181 32 38.5519 32 37.826C32 37.1922 32.1435 36.406 32.4305 35.4691C32.7167 34.5322 33.1232 33.5579 33.65 32.5452C34.175 31.5334 34.7972 30.5134 35.5148 29.4853C36.2315 28.4579 37.0281 27.5439 37.9055 26.743C38.7812 25.9422 39.7059 25.2848 40.6787 24.7707C41.6507 24.2574 42.6467 24 43.6676 24C43.9855 24 44.392 24.0684 44.887 24.2045C45.3803 24.3405 45.859 24.5515 46.3213 24.8391C46.7828 25.1259 47.1824 25.4811 47.5167 25.9039C47.8518 26.3276 48.0185 26.8107 48.0185 27.3549C48.0185 27.8388 47.979 28.2543 47.8999 28.6013C47.8192 28.9492 47.7478 29.2433 47.6842 29.4853C47.5562 29.7875 47.4445 30.045 47.3491 30.256L46.1064 29.7117C46.2646 29.1977 46.329 28.7301 46.2981 28.3072C46.2646 27.974 46.146 27.6571 45.9389 27.3549C45.7309 27.0534 45.3571 26.9011 44.8148 26.9011C44.1462 26.9011 43.4682 27.1732 42.7833 27.7174C42.0967 28.2616 41.4349 28.9492 40.7982 29.7794C40.1605 30.612 39.5701 31.5032 39.0296 32.4548C38.4865 33.4063 38.0405 34.2984 37.6898 35.1294C37.3392 35.9604 37.1081 36.648 36.9963 37.1922C36.8846 37.7356 36.9405 38.0077 37.1648 38.0077C37.5145 37.5848 38.0886 36.9958 38.8861 36.2398C39.6818 35.4846 40.5275 34.7294 41.4203 33.9734C42.3124 33.2181 43.1571 32.568 43.9546 32.0238C44.7512 31.4796 45.3408 31.2075 45.724 31.2075C46.0747 31.2075 46.4081 31.2841 46.7278 31.4348C47.0466 31.5863 47.3336 31.768 47.588 31.979C47.8432 32.19 48.0435 32.432 48.1861 32.7041C48.3296 32.9762 48.4018 33.2181 48.4018 33.4291C48.4018 33.7013 48.2411 34.0866 47.9231 34.5852C47.6043 35.0838 47.2537 35.5978 46.8713 36.1266C46.4889 36.6561 46.146 37.1392 45.8426 37.5775C45.5401 38.0158 45.4207 38.2953 45.4843 38.4158L52.3222 31.7517H55C53.3431 33.474 51.8444 35.0161 50.5055 36.3759Z" fill="#FEFEFE"/>
<path fill-rule="evenodd" clip-rule="evenodd" d="M73 32.7986C72.9372 32.7986 72.907 32.829 72.907 32.8896L69.9225 35.8997C69.8294 35.9915 69.6116 36.2038 69.2697 36.5373C68.9279 36.8733 68.4846 37.2675 67.9409 37.724C67.3971 38.1797 66.7754 38.6665 66.0757 39.1828C65.3761 39.7007 64.6388 40.1711 63.862 40.5973C63.0845 41.0226 62.2918 41.3799 61.4841 41.6684C60.6747 41.9577 59.8829 42.1019 59.1062 42.1019H59.0593C58.1569 42.1019 57.4271 41.9495 56.8682 41.6454C56.3085 41.3422 55.8577 41.007 55.5159 40.6423C55.143 40.217 54.8632 39.7302 54.6763 39.1828C55.422 39.1828 56.2691 38.8869 57.2176 38.2936C58.1653 37.7002 59.1062 36.9561 60.0379 36.0595C60.9713 35.163 61.8561 34.1894 62.6957 33.1404C63.5353 32.0922 64.2341 31.1194 64.7938 30.222C65.3535 29.3263 65.7104 28.5805 65.8663 27.988C66.0213 27.3947 65.8964 27.0988 65.4934 27.0988C65.0577 27.0988 64.467 27.3873 63.7221 27.9651C62.9756 28.5428 62.1435 29.3099 61.2269 30.2679C60.3094 31.2251 59.3458 32.3045 58.3362 33.5051C57.3265 34.7065 56.3471 35.9456 55.3994 37.2216C54.4501 38.4993 53.5728 39.7531 52.7651 40.9841C51.9565 42.215 51.2888 43.3173 50.76 44.2901C50.1392 46.084 49.6725 47.7403 49.3616 49.2613C49.0508 50.7807 49.0198 52.0272 49.2686 53C48.5849 53 47.9238 52.9549 47.287 52.8631C46.6502 52.7722 46.0905 52.5968 45.6087 52.3395C45.1261 52.0805 44.739 51.7158 44.4424 51.2454C44.1475 50.7733 44 50.1726 44 49.4441C44 48.6229 44.2874 47.4518 44.8622 45.9316C45.4378 44.4113 46.1751 42.7403 47.0775 40.9161C47.9791 39.0918 48.9586 37.2454 50.0135 35.3752C51.0709 33.5051 52.0889 31.7947 53.0684 30.245C54.0471 28.6944 54.9017 27.4332 55.6323 26.4604C56.363 25.4876 56.8523 25 57.1003 25C57.2252 25 57.4195 25.0688 57.6843 25.2057C57.9474 25.3426 58.2122 25.5097 58.4761 25.7081C58.7401 25.9056 58.9738 26.1334 59.1758 26.3916C59.3777 26.6505 59.4782 26.9013 59.4782 27.1439C58.6697 28.3601 57.8242 29.759 56.9378 31.3399C56.0513 32.9199 55.1581 34.577 54.2574 36.3103L55.2821 35.0335C55.5938 34.5172 56.0127 33.9156 56.5414 33.2313C57.0693 32.5479 57.6525 31.834 58.2893 31.0883C58.9269 30.3441 59.5955 29.6057 60.2952 28.8772C60.994 28.147 61.671 27.4938 62.3228 26.9161C62.9756 26.3383 63.5822 25.8753 64.1411 25.5253C64.7008 25.1754 65.1666 25 65.5403 25C65.8503 25 66.2081 25.077 66.612 25.2286C67.0158 25.3811 67.3971 25.586 67.754 25.8449C68.1118 26.1031 68.4143 26.4145 68.6639 26.7792C68.912 27.1439 69.0368 27.5545 69.0368 28.0101C69.0368 28.5272 68.912 29.173 68.6639 29.9483C68.4143 30.7236 68.0808 31.5521 67.661 32.4339C67.2421 33.3158 66.7594 34.2197 66.2157 35.1474C65.6719 36.0751 65.0895 36.9479 64.467 37.7691C64.1871 38.1649 64.1561 38.31 64.374 38.2026C64.5918 38.0969 64.8943 37.8994 65.2831 37.6093C65.6719 37.3216 66.0531 37.0167 66.426 36.6979C66.7988 36.3783 67.0008 36.189 67.0318 36.1276L70.3892 32.7986H73Z" fill="#FEFEFE"/>
<path fill-rule="evenodd" clip-rule="evenodd" d="M92 32.7986C91.9372 32.7986 91.907 32.829 91.907 32.8896L88.9225 35.8997C88.8294 35.9915 88.6116 36.2038 88.2697 36.5373C87.9279 36.8733 87.4846 37.2675 86.9409 37.724C86.3971 38.1797 85.7754 38.6665 85.0757 39.1828C84.3761 39.7007 83.6388 40.1711 82.862 40.5973C82.0845 41.0226 81.2918 41.3799 80.4841 41.6684C79.6747 41.9577 78.8829 42.1019 78.1062 42.1019H78.0593C77.1569 42.1019 76.4271 41.9495 75.8682 41.6454C75.3085 41.3422 74.8577 41.007 74.5159 40.6423C74.143 40.217 73.8632 39.7302 73.6763 39.1828C74.422 39.1828 75.2691 38.8869 76.2176 38.2936C77.1653 37.7002 78.1062 36.9561 79.0379 36.0595C79.9713 35.163 80.8561 34.1894 81.6957 33.1404C82.5353 32.0922 83.2341 31.1194 83.7938 30.222C84.3535 29.3263 84.7104 28.5805 84.8663 27.988C85.0213 27.3947 84.8964 27.0988 84.4934 27.0988C84.0577 27.0988 83.467 27.3873 82.7221 27.9651C81.9756 28.5428 81.1435 29.3099 80.2269 30.2679C79.3094 31.2251 78.3458 32.3045 77.3362 33.5051C76.3265 34.7065 75.3471 35.9456 74.3994 37.2216C73.4501 38.4993 72.5728 39.7531 71.7651 40.9841C70.9565 42.215 70.2888 43.3173 69.76 44.2901C69.1392 46.084 68.6725 47.7403 68.3616 49.2613C68.0508 50.7807 68.0198 52.0272 68.2686 53C67.5849 53 66.9238 52.9549 66.287 52.8631C65.6502 52.7722 65.0905 52.5968 64.6087 52.3395C64.1261 52.0805 63.739 51.7158 63.4424 51.2454C63.1475 50.7733 63 50.1726 63 49.4441C63 48.6229 63.2874 47.4518 63.8622 45.9316C64.4378 44.4113 65.1751 42.7403 66.0775 40.9161C66.9791 39.0918 67.9586 37.2454 69.0135 35.3752C70.0709 33.5051 71.0889 31.7947 72.0684 30.245C73.0471 28.6944 73.9017 27.4332 74.6323 26.4604C75.363 25.4876 75.8523 25 76.1003 25C76.2252 25 76.4195 25.0688 76.6843 25.2057C76.9474 25.3426 77.2122 25.5097 77.4761 25.7081C77.7401 25.9056 77.9738 26.1334 78.1758 26.3916C78.3777 26.6505 78.4782 26.9013 78.4782 27.1439C77.6697 28.3601 76.8242 29.759 75.9378 31.3399C75.0513 32.9199 74.1581 34.577 73.2574 36.3103L74.2821 35.0335C74.5938 34.5172 75.0127 33.9156 75.5414 33.2313C76.0693 32.5479 76.6525 31.834 77.2893 31.0883C77.9269 30.3441 78.5955 29.6057 79.2952 28.8772C79.994 28.147 80.671 27.4938 81.3228 26.9161C81.9756 26.3383 82.5822 25.8753 83.1411 25.5253C83.7008 25.1754 84.1666 25 84.5403 25C84.8503 25 85.2081 25.077 85.612 25.2286C86.0158 25.3811 86.3971 25.586 86.754 25.8449C87.1118 26.1031 87.4143 26.4145 87.6639 26.7792C87.912 27.1439 88.0368 27.5545 88.0368 28.0101C88.0368 28.5272 87.912 29.173 87.6639 29.9483C87.4143 30.7236 87.0808 31.5521 86.661 32.4339C86.2421 33.3158 85.7594 34.2197 85.2157 35.1474C84.6719 36.0751 84.0895 36.9479 83.467 37.7691C83.1871 38.1649 83.1561 38.31 83.374 38.2026C83.5918 38.0969 83.8943 37.8994 84.2831 37.6093C84.6719 37.3216 85.0531 37.0167 85.426 36.6979C85.7988 36.3783 86.0008 36.189 86.0318 36.1276L89.3892 32.7986H92Z" fill="#FEFEFE"/>
<path fill-rule="evenodd" clip-rule="evenodd" d="M99.1657 22.6556C99.0489 22.6556 98.7941 22.5639 98.4014 22.3796C98.0095 22.1953 97.6019 21.9888 97.181 21.7591C96.7593 21.5294 96.3807 21.3154 96.0468 21.1154C95.7121 20.9163 95.5452 20.8015 95.5452 20.7709C95.5452 20.7403 95.647 20.4412 95.8508 19.8744C96.0531 19.3068 96.2867 18.6326 96.5485 17.8509C96.8103 17.0693 97.0572 16.2414 97.2892 15.3689C97.522 14.4947 97.6678 13.7056 97.7258 13C98.0158 13 98.4085 13.0925 98.9039 13.276C99.3977 13.4602 99.8695 13.7056 100.322 14.0122C100.772 14.3187 101.164 14.6789 101.499 15.0929C101.832 15.506 102 15.9588 102 16.4488C102 16.9396 101.876 17.5369 101.63 18.2417C101.382 18.9474 101.092 19.629 100.757 20.2875C100.423 20.9477 100.103 21.5054 99.7982 21.9657C99.4925 22.4259 99.2809 22.6556 99.1657 22.6556ZM98.686 31.6212H101.128C99.7034 33.3679 98.4085 34.9312 97.2461 36.3102C96.7515 36.8927 96.2498 37.4678 95.7419 38.0346C95.2324 38.6022 94.7605 39.0996 94.3239 39.5293C93.8881 39.9581 93.5017 40.3101 93.1686 40.586C92.8339 40.862 92.5932 41 92.449 41C91.6636 41 90.9872 40.8852 90.4205 40.6555C89.853 40.4258 89.3952 40.1424 89.0464 39.8052C88.6976 39.4681 88.4358 39.1302 88.261 38.7931C88.087 38.456 88 38.1651 88 37.9197C88 37.0621 88.1811 36.0119 88.5448 34.7701C88.9085 33.529 89.3803 32.2492 89.9627 30.9313C90.5435 29.6143 91.198 28.3261 91.9254 27.0694C92.6512 25.8127 93.3786 24.7088 94.106 23.7586C94.4548 23.7586 94.8327 23.8206 95.2395 23.9429C95.6471 24.066 96.0249 24.2263 96.3737 24.4262C96.7233 24.6254 97.0211 24.8625 97.268 25.1385C97.5149 25.4144 97.6388 25.7053 97.6388 26.0118C96.5046 27.6056 95.5522 29.2226 94.7817 30.8627C94.0112 32.502 93.4304 33.9356 93.0377 35.1617C92.645 36.387 92.4702 37.2835 92.5141 37.8512C92.5572 38.418 92.826 38.4254 93.3206 37.8735L98.686 31.6212Z" fill="#FEFEFE"/>
<mask id="mask0_4_2" style="mask-type:alpha" maskUnits="userSpaceOnUse" x="97" y="12" width="31" height="39">
<path d="M97.7347 12.2124H127.339V50.8587H97.7347V12.2124Z" fill="white"/>
</mask>
<g mask="url(#mask0_4_2)">
<path fill-rule="evenodd" clip-rule="evenodd" d="M127.339 14.982C126.841 15.5985 126.243 16.4682 125.544 17.5917C124.845 18.7152 124.099 20.0006 123.307 21.4469C122.514 22.894 121.69 24.4715 120.836 26.1792C119.98 27.8877 119.157 29.6427 118.365 31.4433C117.572 33.244 116.833 35.0604 116.15 36.8917C115.466 38.723 114.892 40.4855 114.425 42.1783C113.959 43.8702 113.617 45.4634 113.399 46.957C113.182 48.4498 113.15 49.7509 113.306 50.8587C112.715 50.8587 112.078 50.7666 111.395 50.5815C110.71 50.3973 110.074 50.0969 109.483 49.6812C108.892 49.2655 108.403 48.7112 108.015 48.0192C107.626 47.3263 107.432 46.4724 107.432 45.4568C107.432 44.656 107.556 43.7258 107.805 42.6629C108.053 41.6016 108.395 40.4548 108.83 39.2234C108.022 39.3777 107.042 39.5155 105.894 39.6391C104.743 39.7619 103.423 39.8233 101.931 39.8233C101.713 39.8233 101.371 39.7005 100.905 39.4541C100.439 39.2076 99.9725 38.8467 99.5059 38.3696C99.04 37.8916 98.6278 37.3232 98.2709 36.661C97.9131 35.9989 97.7347 35.2529 97.7347 34.4214C97.7347 33.8373 98.0614 32.9369 98.7141 31.7205C99.366 30.5048 100.19 29.1423 101.185 27.6338C102.179 26.126 103.274 24.5561 104.472 22.9239C105.668 21.2925 106.818 19.7541 107.921 18.307C109.025 16.8606 110.004 15.5902 110.859 14.4974C111.713 13.4054 112.296 12.6437 112.607 12.2122C113.073 12.2122 113.555 12.3117 114.052 12.5117C114.548 12.7134 114.992 12.9432 115.381 13.2046C115.769 13.4668 116.088 13.744 116.336 14.0352C116.585 14.329 116.709 14.5671 116.709 14.7522C114.688 17.3071 112.833 19.823 111.138 22.3007C109.444 24.7793 107.991 27.0031 106.779 28.9722C105.568 30.943 104.618 32.5743 103.935 33.8671C103.251 35.1599 102.91 35.915 102.91 36.1291C102.91 36.3457 103.111 36.4843 103.516 36.5449C103.92 36.6079 104.448 36.622 105.101 36.5913C105.754 36.5615 106.499 36.5225 107.339 36.476C108.178 36.4303 109.048 36.4063 109.95 36.4063C110.695 34.6828 111.535 32.8905 112.467 31.0276C113.399 29.1656 114.37 27.3566 115.381 25.6025C116.391 23.8483 117.385 22.1854 118.365 20.6154C119.343 19.0455 120.236 17.6763 121.045 16.5063C121.853 15.3372 122.544 14.4053 123.12 13.7124C123.694 13.0204 124.075 12.6735 124.262 12.6735C124.666 12.6735 125.054 12.7515 125.428 12.9042C125.801 13.0594 126.127 13.2511 126.407 13.4817C126.687 13.7124 126.912 13.9663 127.082 14.2435C127.253 14.5206 127.339 14.7671 127.339 14.982Z" fill="#FEFEFE"/>
</g>
</g>
<defs>
<clipPath id="clip0_4_2">
<rect width="126" height="65" fill="white"/>
</clipPath>
</defs>
</svg>
